<svg width="256" height="256" viewBox="0 0 256 256" fill="none" xmlns="http://www.w3.org/2000/svg">
<rect width="256" height="256" rx="40" fill="#FF444F"/>
<path d="M85.6661 39.4982L83.2164 53.3907H74.7128C66.7795 53.3907 59.2178 59.8183 57.8163 67.7515L57.223 71.1282C55.8281 79.0615 61.1212 85.4891 69.0546 85.4891H76.1469C81.929 85.4891 87.4374 80.8085 88.4543 75.0265L94.9861 38L85.6661 39.4982ZM79.6324 73.7162C79.3195 75.5023 77.7114 76.9561 75.9253 76.9561H71.6164C68.0507 76.9561 65.6649 74.0616 66.2906 70.4893L66.6622 68.3838C67.2945 64.8181 70.6973 61.9172 74.263 61.9172H81.7129L79.6324 73.7162ZM151.156 85.4884L156.735 53.8333H165.562L159.982 85.4884H151.148H151.156ZM152.11 54.1983C151.668 56.7091 151.224 59.22 150.781 61.7308C146.599 60.4314 142.285 60.8452 140.96 61.1095C139.528 69.2378 138.095 77.368 136.662 85.4963H127.829C129.029 78.6951 133.126 55.4685 133.126 55.4685C135.999 54.2789 143.053 51.8647 152.11 54.1983ZM116.323 53.3853H109.453C102.758 53.3853 96.3764 58.8089 95.1962 65.5036L93.8078 73.3718C92.6279 80.0665 97.0934 85.4902 103.788 85.4902H118.403L119.902 76.9832H106.167C103.938 76.9832 102.445 75.1774 102.843 72.9416L102.888 72.6743H125.033L126.297 65.5036C127.477 58.8089 123.012 53.3853 116.317 53.3853H116.323ZM117.438 64.8257L117.386 65.282H104.218L104.29 64.8779C104.687 62.6485 106.721 60.6864 108.957 60.6864H114.101C116.31 60.6864 117.803 62.6159 117.438 64.8257ZM200 53.8333C196.991 61.8328 190.096 75.4408 183.416 85.4884H174.584C171.518 75.9254 169.538 62.601 169.16 53.8333H177.993C178.152 56.6933 179.432 67.3016 180.893 74.7126C184.902 67.5028 189.32 58.0434 191.161 53.8333H200Z" fill="white"/>
<path d="M85.0097 205.765C83.8154 202.603 82.6913 199.512 81.6375 196.491C80.5838 193.4 79.4949 190.274 78.3708 187.113H45.282L38.6432 205.765H28C30.8101 198.037 33.4445 190.906 35.9034 184.373C38.3622 177.769 40.7508 171.517 43.0691 165.616C45.4577 159.714 47.8111 154.094 50.1294 148.755C52.4478 143.346 54.8715 138.006 57.4005 132.738H66.7792C69.3083 138.006 71.732 143.346 74.0503 148.755C76.3686 154.094 78.687 159.714 81.0053 165.616C83.3939 171.517 85.8175 177.769 88.2764 184.373C90.7352 190.906 93.3697 198.037 96.1798 205.765H85.0097ZM75.4202 178.682C73.1722 172.571 70.9241 166.669 68.676 160.979C66.4982 155.218 64.215 149.703 61.8264 144.435C59.3676 149.703 57.0141 155.218 54.7661 160.979C52.5883 166.669 50.4104 172.571 48.2326 178.682H75.4202Z" fill="white"/>
<path d="M121.27 132C131.527 132 139.396 133.967 144.875 137.901C150.425 141.765 153.2 147.561 153.2 155.289C153.2 159.504 152.427 163.122 150.882 166.143C149.406 169.093 147.229 171.517 144.348 173.414C141.538 175.24 138.096 176.575 134.021 177.418C129.947 178.261 125.345 178.683 120.217 178.683H112.103V205.765H101.881V133.791C104.761 133.089 107.958 132.632 111.47 132.422C115.053 132.141 118.32 132 121.27 132ZM122.113 140.957C117.758 140.957 114.421 141.063 112.103 141.273V169.936H119.795C123.308 169.936 126.469 169.725 129.279 169.304C132.089 168.812 134.443 168.039 136.34 166.986C138.307 165.862 139.817 164.351 140.871 162.454C141.925 160.558 142.451 158.134 142.451 155.183C142.451 152.373 141.889 150.055 140.765 148.228C139.712 146.402 138.236 144.962 136.34 143.908C134.513 142.784 132.37 142.011 129.911 141.589C127.453 141.168 124.853 140.957 122.113 140.957Z" fill="white"/>
<path d="M161.777 132.738H171.999V205.765H161.777V132.738Z" fill="white"/>
<path d="M232.218 164.941H186.132C184.045 164.941 182.354 166.633 182.354 168.72V201.347C182.354 203.434 184.045 205.125 186.132 205.125H232.218C234.304 205.125 235.996 203.434 235.996 201.347V168.72C235.996 166.633 234.304 164.941 232.218 164.941Z" fill="#181C25"/>
<path d="M208.677 179.02L202.192 197.569H196.395L189.91 179.02H195.344L199.196 192.291H199.391L203.23 179.02H208.677Z" fill="white"/>
<path d="M210.808 197.568V193.8L219.611 185.649C220.36 184.924 220.988 184.272 221.495 183.693C222.01 183.113 222.401 182.546 222.667 181.99C222.932 181.426 223.065 180.819 223.065 180.166C223.065 179.442 222.9 178.818 222.57 178.295C222.24 177.763 221.789 177.357 221.217 177.075C220.646 176.785 219.998 176.64 219.273 176.64C218.517 176.64 217.856 176.793 217.293 177.099C216.73 177.405 216.294 177.844 215.989 178.415C215.682 178.987 215.53 179.667 215.53 180.456H210.566C210.566 178.838 210.933 177.433 211.665 176.242C212.398 175.05 213.424 174.128 214.745 173.476C216.065 172.824 217.587 172.498 219.31 172.498C221.08 172.498 222.622 172.812 223.935 173.44C225.255 174.06 226.282 174.921 227.014 176.024C227.747 177.127 228.113 178.391 228.113 179.816C228.113 180.75 227.928 181.672 227.558 182.582C227.195 183.492 226.547 184.502 225.614 185.613C224.68 186.716 223.363 188.04 221.664 189.586L218.053 193.124V193.293H228.439V197.568H210.808Z" fill="white"/>
</svg>
