<svg width="334" height="59" viewBox="0 0 334 59" fill="none" xmlns="http://www.w3.org/2000/svg">
<g clip-path="url(#clip0_16064_550893)">
<mask id="mask0_16064_550893" style="mask-type:luminance" maskUnits="userSpaceOnUse" x="0" y="0" width="282" height="58">
<path d="M282 0H0V58H282V0Z" fill="white"/>
</mask>
<g mask="url(#mask0_16064_550893)">
<path d="M34.9861 1.82853L31.9963 18.7839H21.6179C11.9356 18.7839 2.70673 26.6285 0.996224 36.3108L0.272218 40.4319C-1.43032 50.1143 5.02984 57.959 14.7122 57.959H23.3682C30.4251 57.959 37.1479 52.2464 38.389 45.1897L46.3608 0L34.9861 1.82853ZM27.6221 43.5905C27.2402 45.7704 25.2776 47.5447 23.0977 47.5447H17.8389C13.487 47.5447 10.5752 44.012 11.3389 39.6522L11.7924 37.0825C12.5641 32.7306 16.7171 29.1902 21.069 29.1902H30.1613L27.6221 43.5905ZM114.914 57.9581L121.724 19.324H132.496L125.686 57.9581H114.905H114.914ZM116.079 19.7695C115.539 22.8339 114.997 25.8983 114.457 28.9627C109.353 27.3768 104.088 27.8818 102.47 28.2044C100.723 38.1247 98.9739 48.0474 97.2245 57.9677H86.4451C87.9089 49.6671 92.9099 21.3197 92.9099 21.3197C96.4158 19.8679 105.025 16.9214 116.079 19.7695ZM72.4022 18.7773H64.0168C55.8461 18.7773 48.0576 25.3966 46.6173 33.5673L44.9228 43.1702C43.4827 51.3408 48.9327 57.9603 57.1034 57.9603H74.9405L76.7704 47.5778H60.007C57.2863 47.5778 55.4642 45.3739 55.9497 42.6451L56.0054 42.3189H83.0316L84.575 33.5673C86.0148 25.3966 80.5651 18.7773 72.3944 18.7773H72.4022ZM73.7628 32.7399L73.6992 33.2968H57.6285L57.716 32.8036C58.201 30.0827 60.6835 27.688 63.4121 27.688H69.6894C72.3865 27.688 74.2086 30.0429 73.7628 32.7399ZM174.527 19.324C170.855 29.0872 162.439 45.6953 154.287 57.9581H143.507C139.765 46.2868 137.349 30.0248 136.888 19.324H147.668C147.862 22.8146 149.425 35.7617 151.208 44.8066C156.1 36.0072 161.492 24.4623 163.739 19.324H174.527Z" fill="#FF444F"/>
<path d="M222.528 58C221.712 55.84 220.944 53.728 220.224 51.664C219.504 49.552 218.76 47.416 217.992 45.256H195.384L190.848 58H183.576C185.496 52.72 187.296 47.848 188.976 43.384C190.656 38.872 192.288 34.6 193.872 30.568C195.504 26.536 197.112 22.696 198.696 19.048C200.28 15.352 201.936 11.704 203.664 8.104H210.072C211.8 11.704 213.456 15.352 215.04 19.048C216.624 22.696 218.208 26.536 219.792 30.568C221.424 34.6 223.08 38.872 224.76 43.384C226.44 47.848 228.24 52.72 230.16 58H222.528ZM215.976 39.496C214.44 35.32 212.904 31.288 211.368 27.4C209.88 23.464 208.32 19.696 206.688 16.096C205.008 19.696 203.4 23.464 201.864 27.4C200.376 31.288 198.888 35.32 197.4 39.496H215.976Z" fill="#414652"/>
<path d="M247.302 7.59998C254.31 7.59998 259.686 8.94398 263.43 11.632C267.222 14.272 269.118 18.232 269.118 23.512C269.118 26.392 268.59 28.864 267.534 30.928C266.526 32.944 265.038 34.6 263.07 35.896C261.15 37.144 258.798 38.056 256.014 38.632C253.23 39.208 250.086 39.496 246.582 39.496H241.038V58H234.054V8.82398C236.022 8.34398 238.206 8.03198 240.606 7.88798C243.054 7.69598 245.286 7.59998 247.302 7.59998ZM247.878 13.72C244.902 13.72 242.622 13.792 241.038 13.936V33.52H246.294C248.694 33.52 250.854 33.376 252.774 33.088C254.694 32.752 256.302 32.224 257.598 31.504C258.942 30.736 259.974 29.704 260.694 28.408C261.414 27.112 261.774 25.456 261.774 23.44C261.774 21.52 261.39 19.936 260.622 18.688C259.902 17.44 258.894 16.456 257.598 15.736C256.35 14.968 254.886 14.44 253.206 14.152C251.526 13.864 249.75 13.72 247.878 13.72Z" fill="#414652"/>
<path d="M274.979 8.104H281.963V58H274.979V8.104Z" fill="#414652"/>
</g>
</g>
<rect x="292" y="27" width="41.9953" height="31.4592" rx="2.95809" fill="#FF444F"/>
<path d="M312.608 38.0215L307.531 52.543H302.993L297.916 38.0215H302.17L305.186 48.4116H305.338L308.344 38.0215H312.608Z" fill="white"/>
<path d="M314.276 52.5429V49.5932L321.168 43.2117C321.754 42.6444 322.246 42.1339 322.643 41.6801C323.046 41.2263 323.352 40.782 323.56 40.3471C323.768 39.9059 323.872 39.43 323.872 38.9195C323.872 38.3523 323.743 37.8638 323.484 37.4541C323.226 37.0381 322.873 36.7199 322.425 36.4993C321.978 36.2724 321.471 36.1589 320.903 36.1589C320.311 36.1589 319.794 36.2787 319.353 36.5182C318.912 36.7577 318.571 37.1012 318.332 37.5487C318.092 37.9962 317.973 38.5287 317.973 39.1464H314.087C314.087 37.8796 314.374 36.7797 314.947 35.8469C315.521 34.9141 316.324 34.1924 317.358 33.6819C318.392 33.1714 319.583 32.9161 320.932 32.9161C322.318 32.9161 323.525 33.1619 324.553 33.6536C325.586 34.1389 326.39 34.8133 326.963 35.6767C327.537 36.5402 327.824 37.5298 327.824 38.6453C327.824 39.3765 327.679 40.0981 327.389 40.8103C327.105 41.5226 326.598 42.3135 325.867 43.1833C325.136 44.0468 324.105 45.0836 322.775 46.2937L319.948 49.0638V49.1962H328.079V52.5429H314.276Z" fill="white"/>
<defs>
<clipPath id="clip0_16064_550893">
<rect width="282" height="58" fill="white"/>
</clipPath>
</defs>
</svg>
